<?xml version="1.0" encoding="UTF-8"?>
<svg id="a" data-name="Capa 1 copia" xmlns="http://www.w3.org/2000/svg" viewBox="0 0 279.84 48.38">
  <path d="m21.06,12.61c-.71-.71-1.52-1.38-2.42-2.03s-1.88-1.2-2.9-1.67c-1.02-.47-2.07-.84-3.14-1.12-1.07-.28-2.13-.42-3.16-.42-.61,1.31-1.05,2.62-1.33,3.92-.28,1.3-.42,2.58-.42,3.85,0,2.2.4,4.27,1.21,6.21.81,1.94,1.94,3.65,3.39,5.11,1.45,1.46,3.2,2.62,5.25,3.47,2.05.85,4.31,1.28,6.78,1.31-1.16,1.04-2.46,1.84-3.88,2.42-1.43.58-2.94.87-4.53.87-1.89,0-3.67-.4-5.32-1.21-1.65-.81-3.09-1.91-4.32-3.31-1.23-1.4-2.2-3.06-2.92-4.96-.72-1.91-1.08-3.96-1.08-6.16s.37-4.41,1.1-6.33c.73-1.92,1.72-3.57,2.97-4.96,1.25-1.39,2.68-2.46,4.3-3.22,1.62-.76,3.32-1.14,5.11-1.14s3.55.41,5.34,1.23c1.79.82,3.5,2.14,5.11,3.96l-5.15,4.17Z" fill="#002f49"/>
  <path d="m39.28,35.04l-2.16-4.28-5.23,4.28c-1.04-.63-1.98-1.38-2.82-2.24-.85-.86-1.58-1.81-2.22-2.84-.63-1.04-1.12-2.14-1.46-3.31-.34-1.17-.51-2.37-.51-3.58,0-1.67.28-3.11.85-4.34s1.33-2.24,2.27-3.03,2.03-1.39,3.26-1.78c1.22-.39,2.51-.59,3.85-.59.56,0,1.17.05,1.84.15.67.1,1.34.25,2.01.44.67.19,1.33.42,1.99.7.66.28,1.27.61,1.86.98v12.27l2.35,2.35-5.87,4.81Zm-2.58-15.46l-6.97-3.03c-.18.45-.3.91-.36,1.36-.06.45-.09.91-.09,1.36,0,1.11.21,2.18.62,3.2.42,1.02.97,1.98,1.65,2.88.68.9,1.47,1.71,2.37,2.44.9.73,1.82,1.38,2.78,1.93v-10.15Z" fill="#002f49"/>
  <path d="m65.8,24.89c0,1.57-.27,2.95-.8,4.15-.53,1.2-1.27,2.21-2.22,3.03s-2.06,1.45-3.35,1.88c-1.29.43-2.68.64-4.17.64-.45,0-.88-.04-1.29-.11v4.66l2.35,2.35-8.45,6.9v-28.34l-2.35-2.35,5.87-4.81,2.12,4.32,5.27-4.32c1.01.63,1.94,1.38,2.8,2.25.86.87,1.6,1.83,2.24,2.86.63,1.04,1.12,2.14,1.46,3.31.34,1.17.51,2.37.51,3.58Zm-4.39,3.79c0-1.11-.21-2.18-.62-3.22-.42-1.04-.97-1.99-1.65-2.88-.68-.88-1.47-1.7-2.37-2.44-.9-.74-1.82-1.38-2.78-1.91v10.12l6.97,3.07c.3-.93.45-1.84.45-2.73Z" fill="#002f49"/>
  <path d="m77.7,18.22v9.66l2.35,2.35-5.87,4.81c-.23-.33-.49-.72-.78-1.17-.29-.45-.57-.99-.83-1.61s-.49-1.34-.68-2.16c-.19-.82-.28-1.75-.28-2.78v-9.09h-4.66v-3.45h4.66v-1.74l-2.35-2.35,8.45-6.89v10.99h4.66v3.45h-4.66Z" fill="#002f49"/>
  <path d="m97.89,35.04l-2.16-4.28-5.23,4.28c-1.04-.63-1.98-1.38-2.82-2.24-.85-.86-1.58-1.81-2.22-2.84-.63-1.04-1.12-2.14-1.46-3.31-.34-1.17-.51-2.37-.51-3.58,0-1.67.28-3.11.85-4.34s1.33-2.24,2.27-3.03,2.03-1.39,3.26-1.78c1.22-.39,2.51-.59,3.85-.59.56,0,1.17.05,1.84.15.67.1,1.34.25,2.01.44.67.19,1.33.42,1.99.7.66.28,1.27.61,1.86.98v12.27l2.35,2.35-5.87,4.81Zm-2.58-15.46l-6.97-3.03c-.18.45-.3.91-.36,1.36-.06.45-.09.91-.09,1.36,0,1.11.21,2.18.62,3.2.42,1.02.97,1.98,1.65,2.88.68.9,1.47,1.71,2.37,2.44.9.73,1.82,1.38,2.78,1.93v-10.15Z" fill="#002f49"/>
  <path d="m116.53,34.09h-12.77l3.33-3.98v-8.03l-2.35-2.35,8.45-6.9v17.27l3.33,3.98Zm-3.33-25.27h-6.1V3.79h6.1v5.04Z" fill="#002f49"/>
  <path d="m132.51,34.09v-11.18c0-.66-.13-1.28-.38-1.86-.25-.58-.59-1.09-1.02-1.53-.43-.44-.93-.79-1.52-1.04-.58-.25-1.2-.38-1.86-.38h-1.21v12.01l3.33,3.98h-12.77l3.33-3.98v-10.27l-2.31-2.35,5.87-4.81,2.2,4.36,5.15-4.21c1.06.15,2.04.5,2.94,1.04.9.54,1.67,1.23,2.31,2.06s1.14,1.77,1.5,2.82c.35,1.05.53,2.13.53,3.24v8.11l3.33,3.98h-9.43Z" fill="#002f49"/>
  <path d="m171.34,12.61c-.71-.71-1.51-1.38-2.42-2.03-.91-.64-1.88-1.2-2.9-1.67-1.02-.47-2.07-.84-3.14-1.12-1.07-.28-2.13-.42-3.16-.42-.61,1.31-1.05,2.62-1.33,3.92-.28,1.3-.42,2.58-.42,3.85,0,2.2.4,4.27,1.21,6.21s1.94,3.65,3.39,5.11c1.45,1.46,3.2,2.62,5.25,3.47,2.04.85,4.3,1.28,6.78,1.31-1.16,1.04-2.46,1.84-3.88,2.42-1.43.58-2.94.87-4.53.87-1.89,0-3.67-.4-5.32-1.21-1.65-.81-3.09-1.91-4.32-3.31s-2.2-3.06-2.92-4.96c-.72-1.91-1.08-3.96-1.08-6.16s.37-4.41,1.1-6.33c.73-1.92,1.72-3.57,2.97-4.96,1.25-1.39,2.68-2.46,4.3-3.22,1.62-.76,3.32-1.14,5.11-1.14s3.55.41,5.34,1.23c1.79.82,3.5,2.14,5.11,3.96l-5.15,4.17Z" fill="#002f49"/>
  <path d="m189.56,35.04l-2.16-4.28-5.23,4.28c-1.04-.63-1.98-1.38-2.82-2.24-.85-.86-1.58-1.81-2.22-2.84-.63-1.04-1.12-2.14-1.46-3.31s-.51-2.37-.51-3.58c0-1.67.28-3.11.85-4.34.57-1.23,1.33-2.24,2.27-3.03s2.03-1.39,3.26-1.78c1.22-.39,2.51-.59,3.84-.59.56,0,1.17.05,1.84.15.67.1,1.34.25,2.01.44.67.19,1.33.42,1.99.7.66.28,1.28.61,1.86.98v12.27l2.35,2.35-5.87,4.81Zm-2.58-15.46l-6.97-3.03c-.18.45-.3.91-.36,1.36-.06.45-.09.91-.09,1.36,0,1.11.21,2.18.63,3.2.42,1.02.97,1.98,1.65,2.88.68.9,1.47,1.71,2.37,2.44.9.73,1.82,1.38,2.78,1.93v-10.15Z" fill="#002f49"/>
  <path d="m211.8,34.09v-11.18c0-.66-.13-1.28-.38-1.86-.25-.58-.59-1.09-1.02-1.53-.43-.44-.93-.79-1.52-1.04-.58-.25-1.2-.38-1.86-.38h-1.21v12.01l3.33,3.98h-12.77l3.33-3.98v-10.27l-2.31-2.35,5.87-4.81,2.2,4.36,5.15-4.21c1.06.15,2.04.5,2.94,1.04.9.54,1.67,1.23,2.31,2.06.64.83,1.14,1.77,1.5,2.82.35,1.05.53,2.13.53,3.24v8.11l3.33,3.98h-9.43Z" fill="#002f49"/>
  <path d="m229.49,35.04l-7.65-15.34-2.31-2.31,5.57-4.55,6.02,12.24,3.33-6.29-3.41-4.02h9.36l-10.91,20.27Z" fill="#002f49"/>
  <path d="m255.18,35.04l-2.16-4.28-5.23,4.28c-1.04-.63-1.98-1.38-2.82-2.24-.85-.86-1.58-1.81-2.22-2.84-.63-1.04-1.12-2.14-1.46-3.31s-.51-2.37-.51-3.58c0-1.67.28-3.11.85-4.34.57-1.23,1.33-2.24,2.27-3.03s2.03-1.39,3.26-1.78c1.22-.39,2.51-.59,3.84-.59.56,0,1.17.05,1.84.15.67.1,1.34.25,2.01.44.67.19,1.33.42,1.99.7.66.28,1.28.61,1.86.98v12.27l2.35,2.35-5.87,4.81Zm-2.58-15.46l-6.97-3.03c-.18.45-.3.91-.36,1.36-.06.45-.09.91-.09,1.36,0,1.11.21,2.18.63,3.2.42,1.02.97,1.98,1.65,2.88.68.9,1.47,1.71,2.37,2.44.9.73,1.82,1.38,2.78,1.93v-10.15Z" fill="#002f49"/>
  <path d="m278.89,28.6c0,1.01-.23,1.91-.68,2.69-.46.78-1.06,1.44-1.82,1.97-.76.53-1.61.93-2.56,1.21-.95.28-1.91.42-2.9.42-1.16,0-2.25-.15-3.26-.44-1.01-.29-1.92-.63-2.73-1-.81-.38-1.5-.76-2.08-1.14s-1-.67-1.25-.87l4.24-3.45,8.37,4.55c0-.86-.15-1.58-.44-2.18-.29-.59-.68-1.11-1.17-1.55-.49-.44-1.06-.83-1.71-1.17-.64-.34-1.31-.69-1.99-1.04-.58-.3-1.19-.66-1.84-1.08-.64-.42-1.23-.9-1.76-1.44-.53-.54-.97-1.16-1.33-1.84-.35-.68-.53-1.43-.53-2.23,0-1.19.2-2.2.61-3.05.4-.85.95-1.54,1.63-2.08.68-.54,1.46-.94,2.35-1.19.88-.25,1.82-.38,2.8-.38,1.44,0,2.88.25,4.32.76,1.44.51,2.68,1.2,3.71,2.08l-4.47,3.67-7.54-3.79c0,.81.16,1.49.49,2.05.33.56.76,1.04,1.29,1.46.53.42,1.14.79,1.82,1.12.68.33,1.39.67,2.12,1.02.81.38,1.59.8,2.35,1.27.76.47,1.43.99,2.01,1.55.58.57,1.05,1.19,1.4,1.88.35.68.53,1.43.53,2.23Z" fill="#002f49"/>
</svg>